<svg width="98" height="28" viewBox="0 0 98 28" fill="none" xmlns="http://www.w3.org/2000/svg">
<g filter="url(#filter0_d_22_5)">
<path d="M4.76136 15V0.454545H13.483V2.01705H6.52273V6.93182H12.8295V8.49432H6.52273V15H4.76136ZM16.1552 15V4.09091H17.7745V5.73864H17.8881C18.087 5.19886 18.4469 4.76089 18.9677 4.42472C19.4885 4.08854 20.0756 3.92045 20.729 3.92045C20.8522 3.92045 21.006 3.92282 21.1907 3.92756C21.3754 3.93229 21.515 3.93939 21.6097 3.94886V5.65341C21.5529 5.6392 21.4227 5.6179 21.2191 5.58949C21.0202 5.55634 20.8095 5.53977 20.587 5.53977C20.0567 5.53977 19.5832 5.65104 19.1665 5.87358C18.7546 6.09138 18.4279 6.39441 18.1864 6.78267C17.9497 7.16619 17.8313 7.60417 17.8313 8.09659V15H16.1552ZM27.8384 15.2273C26.7873 15.2273 25.8806 14.9953 25.1183 14.5312C24.3607 14.0625 23.7759 13.4091 23.364 12.571C22.9568 11.7282 22.7532 10.7481 22.7532 9.63068C22.7532 8.51326 22.9568 7.52841 23.364 6.67614C23.7759 5.81913 24.3488 5.15152 25.0827 4.6733C25.8214 4.19034 26.6831 3.94886 27.668 3.94886C28.2362 3.94886 28.7972 4.04356 29.3512 4.23295C29.9052 4.42235 30.4094 4.73011 30.864 5.15625C31.3185 5.57765 31.6808 6.13636 31.9506 6.83239C32.2205 7.52841 32.3555 8.38542 32.3555 9.40341V10.1136H23.9464V8.66477H30.6509C30.6509 8.04924 30.5278 7.5 30.2816 7.01705C30.0401 6.53409 29.6945 6.15294 29.2447 5.87358C28.7996 5.59422 28.274 5.45455 27.668 5.45455C27.0004 5.45455 26.4227 5.62026 25.935 5.9517C25.4521 6.27841 25.0804 6.70455 24.82 7.23011C24.5595 7.75568 24.4293 8.31913 24.4293 8.92045V9.88636C24.4293 10.7102 24.5714 11.4086 24.8555 11.9815C25.1443 12.5497 25.5444 12.983 26.0558 13.2812C26.5671 13.5748 27.1613 13.7216 27.8384 13.7216C28.2788 13.7216 28.6765 13.66 29.0316 13.5369C29.3915 13.4091 29.7016 13.2197 29.962 12.9688C30.2224 12.7131 30.4237 12.3958 30.5657 12.017L32.185 12.4716C32.0146 13.0208 31.7281 13.5038 31.3256 13.9205C30.9232 14.3324 30.426 14.6544 29.8342 14.8864C29.2423 15.1136 28.5771 15.2273 27.8384 15.2273ZM39.479 15.2273C38.4279 15.2273 37.5212 14.9953 36.7589 14.5312C36.0013 14.0625 35.4165 13.4091 35.0046 12.571C34.5974 11.7282 34.3938 10.7481 34.3938 9.63068C34.3938 8.51326 34.5974 7.52841 35.0046 6.67614C35.4165 5.81913 35.9895 5.15152 36.7234 4.6733C37.462 4.19034 38.3237 3.94886 39.3086 3.94886C39.8768 3.94886 40.4379 4.04356 40.9918 4.23295C41.5458 4.42235 42.0501 4.73011 42.5046 5.15625C42.9592 5.57765 43.3214 6.13636 43.5913 6.83239C43.8612 7.52841 43.9961 8.38542 43.9961 9.40341V10.1136H35.587V8.66477H42.2915C42.2915 8.04924 42.1684 7.5 41.9222 7.01705C41.6808 6.53409 41.3351 6.15294 40.8853 5.87358C40.4402 5.59422 39.9147 5.45455 39.3086 5.45455C38.641 5.45455 38.0633 5.62026 37.5756 5.9517C37.0927 6.27841 36.721 6.70455 36.4606 7.23011C36.2002 7.75568 36.07 8.31913 36.07 8.92045V9.88636C36.07 10.7102 36.212 11.4086 36.4961 11.9815C36.7849 12.5497 37.185 12.983 37.6964 13.2812C38.2077 13.5748 38.802 13.7216 39.479 13.7216C39.9194 13.7216 40.3171 13.66 40.6722 13.5369C41.0321 13.4091 41.3422 13.2197 41.6026 12.9688C41.863 12.7131 42.0643 12.3958 42.2063 12.017L43.8256 12.4716C43.6552 13.0208 43.3687 13.5038 42.9663 13.9205C42.5638 14.3324 42.0666 14.6544 41.4748 14.8864C40.8829 15.1136 40.2177 15.2273 39.479 15.2273Z" fill="black"/>
<path d="M54.7276 4.09091C54.6424 3.37121 54.2968 2.8125 53.6907 2.41477C53.0846 2.01705 52.3413 1.81818 51.4606 1.81818C50.8166 1.81818 50.2532 1.92235 49.7702 2.13068C49.292 2.33901 48.918 2.62547 48.6481 2.99006C48.3829 3.35464 48.2504 3.76894 48.2504 4.23295C48.2504 4.62121 48.3427 4.95502 48.5273 5.23438C48.7167 5.509 48.9582 5.73864 49.2518 5.9233C49.5453 6.10322 49.8531 6.25237 50.1751 6.37074C50.497 6.48437 50.793 6.5767 51.0629 6.64773L52.5401 7.04545C52.9189 7.14489 53.3403 7.2822 53.8043 7.45739C54.2731 7.63258 54.7205 7.87169 55.1467 8.17472C55.5775 8.47301 55.9326 8.85653 56.212 9.32528C56.4914 9.79403 56.631 10.3693 56.631 11.0511C56.631 11.8371 56.4251 12.5473 56.0131 13.1818C55.6059 13.8163 55.0094 14.3205 54.2234 14.6946C53.4421 15.0687 52.4928 15.2557 51.3754 15.2557C50.3337 15.2557 49.4317 15.0876 48.6694 14.7514C47.9118 14.4152 47.3152 13.9465 46.8796 13.3452C46.4487 12.7438 46.2049 12.0455 46.1481 11.25H47.9663C48.0136 11.7992 48.1983 12.2538 48.5202 12.6136C48.8469 12.9687 49.2589 13.2339 49.756 13.4091C50.2579 13.5795 50.7977 13.6648 51.3754 13.6648C52.0477 13.6648 52.6514 13.5559 53.1864 13.3381C53.7215 13.1155 54.1452 12.8078 54.4577 12.4148C54.7702 12.017 54.9265 11.553 54.9265 11.0227C54.9265 10.5398 54.7915 10.1468 54.5217 9.84375C54.2518 9.54072 53.8967 9.29451 53.4563 9.10511C53.016 8.91572 52.5401 8.75 52.0288 8.60795L50.239 8.09659C49.1026 7.76989 48.203 7.3035 47.5401 6.69744C46.8772 6.09138 46.5458 5.2983 46.5458 4.31818C46.5458 3.50379 46.766 2.79356 47.2063 2.1875C47.6514 1.5767 48.248 1.10322 48.9961 0.767045C49.7489 0.426136 50.5894 0.255681 51.5174 0.255681C52.4549 0.255681 53.2882 0.423768 54.0174 0.759943C54.7466 1.09138 55.3242 1.54593 55.7504 2.12358C56.1812 2.70123 56.4085 3.35701 56.4322 4.09091H54.7276ZM59.2997 19.0909V4.09091H60.919V5.82386H61.1179C61.241 5.63447 61.4115 5.39299 61.6293 5.09943C61.8518 4.80114 62.169 4.53598 62.581 4.30398C62.9976 4.06723 63.5611 3.94886 64.2713 3.94886C65.1899 3.94886 65.9995 4.1785 66.7003 4.63778C67.401 5.09706 67.9479 5.74811 68.3409 6.59091C68.7339 7.43371 68.9304 8.42803 68.9304 9.57386C68.9304 10.7292 68.7339 11.7306 68.3409 12.5781C67.9479 13.4209 67.4034 14.0743 66.7074 14.5384C66.0114 14.9976 65.2088 15.2273 64.2997 15.2273C63.599 15.2273 63.0379 15.1113 62.6165 14.8793C62.1951 14.6425 61.8707 14.375 61.6435 14.0767C61.4162 13.7737 61.241 13.5227 61.1179 13.3239H60.9759V19.0909H59.2997ZM60.9474 9.54545C60.9474 10.3693 61.0682 11.0961 61.3097 11.7259C61.5511 12.3509 61.9039 12.8409 62.3679 13.196C62.8319 13.5464 63.4001 13.7216 64.0724 13.7216C64.7732 13.7216 65.358 13.5369 65.8267 13.1676C66.3002 12.7936 66.6553 12.2917 66.892 11.6619C67.1335 11.0275 67.2543 10.322 67.2543 9.54545C67.2543 8.77841 67.1359 8.08712 66.8991 7.47159C66.6671 6.85133 66.3144 6.36127 65.8409 6.00142C65.3722 5.63684 64.7827 5.45455 64.0724 5.45455C63.3906 5.45455 62.8177 5.62737 62.3537 5.97301C61.8897 6.31392 61.5393 6.79214 61.3026 7.40767C61.0658 8.01847 60.9474 8.73106 60.9474 9.54545ZM71.4872 15V4.09091H73.1634V15H71.4872ZM72.3395 2.27273C72.0128 2.27273 71.7311 2.16146 71.4943 1.93892C71.2623 1.71638 71.1463 1.44886 71.1463 1.13636C71.1463 0.823864 71.2623 0.556345 71.4943 0.333806C71.7311 0.111269 72.0128 0 72.3395 0C72.6662 0 72.9455 0.111269 73.1776 0.333806C73.4143 0.556345 73.5327 0.823864 73.5327 1.13636C73.5327 1.44886 73.4143 1.71638 73.1776 1.93892C72.9455 2.16146 72.6662 2.27273 72.3395 2.27273ZM76.2333 15V4.09091H77.8526V5.73864H77.9663C78.1651 5.19886 78.525 4.76089 79.0458 4.42472C79.5666 4.08854 80.1538 3.92045 80.8072 3.92045C80.9303 3.92045 81.0842 3.92282 81.2688 3.92756C81.4535 3.93229 81.5932 3.93939 81.6879 3.94886V5.65341C81.631 5.6392 81.5008 5.6179 81.2972 5.58949C81.0984 5.55634 80.8877 5.53977 80.6651 5.53977C80.1348 5.53977 79.6613 5.65104 79.2447 5.87358C78.8327 6.09138 78.506 6.39441 78.2646 6.78267C78.0278 7.16619 77.9094 7.60417 77.9094 8.09659V15H76.2333ZM83.6747 15V4.09091H85.3509V15H83.6747ZM84.527 2.27273C84.2003 2.27273 83.9186 2.16146 83.6818 1.93892C83.4498 1.71638 83.3338 1.44886 83.3338 1.13636C83.3338 0.823864 83.4498 0.556345 83.6818 0.333806C83.9186 0.111269 84.2003 0 84.527 0C84.8537 0 85.133 0.111269 85.3651 0.333806C85.6018 0.556345 85.7202 0.823864 85.7202 1.13636C85.7202 1.44886 85.6018 1.71638 85.3651 1.93892C85.133 2.16146 84.8537 2.27273 84.527 2.27273ZM93.1651 4.09091V5.51136H87.5117V4.09091H93.1651ZM89.1594 1.47727H90.8356V11.875C90.8356 12.3485 90.9042 12.7036 91.0415 12.9403C91.1836 13.1723 91.3635 13.3286 91.5813 13.4091C91.8039 13.4848 92.0382 13.5227 92.2844 13.5227C92.4691 13.5227 92.6206 13.5133 92.739 13.4943C92.8574 13.4706 92.9521 13.4517 93.0231 13.4375L93.364 14.9432C93.2504 14.9858 93.0917 15.0284 92.8881 15.071C92.6845 15.1184 92.4265 15.142 92.114 15.142C91.6405 15.142 91.1765 15.0402 90.7219 14.8366C90.2721 14.633 89.8981 14.3229 89.5998 13.9062C89.3062 13.4896 89.1594 12.964 89.1594 12.3295V1.47727Z" fill="#E10E00"/>
</g>
<defs>
<filter id="filter0_d_22_5" x="0.761353" y="0" width="96.6027" height="27.0909" filterUnits="userSpaceOnUse" color-interpolation-filters="sRGB">
<feFlood flood-opacity="0" result="BackgroundImageFix"/>
<feColorMatrix in="SourceAlpha" type="matrix" values="0 0 0 0 0 0 0 0 0 0 0 0 0 0 0 0 0 0 127 0" result="hardAlpha"/>
<feOffset dy="4"/>
<feGaussianBlur stdDeviation="2"/>
<feComposite in2="hardAlpha" operator="out"/>
<feColorMatrix type="matrix" values="0 0 0 0 0 0 0 0 0 0 0 0 0 0 0 0 0 0 0.25 0"/>
<feBlend mode="normal" in2="BackgroundImageFix" result="effect1_dropShadow_22_5"/>
<feBlend mode="normal" in="SourceGraphic" in2="effect1_dropShadow_22_5" result="shape"/>
</filter>
</defs>
</svg>
